{
  "source": "C:\\Users\\Peter\\Desktop\\stuff\\MIUN\\quantitative_research\\video_compression\\videos\\BVI-HD\\BVI-HD_CDVL_videos\\ORIG\\Rowing_1920x1080_30fps.mp4",
  "output": "C:\\Users\\Peter\\Desktop\\stuff\\MIUN\\quantitative_research\\video_compression\\compressed_videos\\BVI-HD\\av1\\2\\Rowing_1920x1080_30fps_av1.mkv",
  "codec": "av1",
  "ok": "Input #0, mov,mp4,m4a,3gp,3g2,mj2, from 'C:\\Users\\Peter\\Desktop\\stuff\\MIUN\\quantitative_research\\video_compression\\videos\\BVI-HD\\BVI-HD_CDVL_videos\\ORIG\\Rowing_1920x1080_30fps.mp4':\n  Metadata:\n    major_brand     : isom\n    minor_version   : 512\n    compatible_brands: isomiso2avc1mp41\n    encoder         : Lavf54.28.101\n  Duration: 00:00:05.00, start: 0.000000, bitrate: 259220 kb/s\n  Stream #0:0[0x1](und): Video: h264 (High 4:4:4 Predictive) (avc1 / 0x31637661), yuv420p(progressive), 1920x1080, 259216 kb/s, 30 fps, 30 tbr, 30 tbn (default)\n    Metadata:\n      handler_name    : VideoHandler\n      vendor_id       : [0][0][0][0]\n[out#0/matroska @ 000001cdb48ff040] Codec AVOption b:a (set bitrate (in bits/s)) has not been used for any stream. The most likely reason is either wrong type (e.g. a video option with no video streams) or that it is a private option of some decoder which was not actually used for any stream.\nStream mapping:\n  Stream #0:0 -> #0:0 (h264 (native) -> av1 (libsvtav1))\nPress [q] to stop, [?] for help\nSvt[info]: -------------------------------------------\nSvt[info]: SVT [version]:\tSVT-AV1 Encoder Lib v3.1.0-19-g6ecfe8ec\nSvt[info]: SVT [build]  :\tGCC 15.2.0\t 64 bit\nSvt[info]: LIB Build date: Aug 17 2025 11:37:13\nSvt[info]: -------------------------------------------\nSvt[info]: Level of Parallelism: 5\nSvt[info]: Number of PPCS 93\nSvt[info]: [asm level on system : up to avx2]\nSvt[info]: [asm level selected : up to avx2]\nSvt[info]: -------------------------------------------\nSvt[info]: SVT [config]: main profile\ttier (auto)\tlevel (auto)\nSvt[info]: SVT [config]: width / height / fps numerator / fps denominator \t\t: 1920 / 1080 / 30 / 1\nSvt[info]: SVT [config]: bit-depth / color format \t\t\t\t\t: 8 / YUV420\nSvt[info]: SVT [config]: preset / tune / pred struct \t\t\t\t\t: 4 / PSNR / random access\nSvt[info]: SVT [config]: gop size / mini-gop size / key-frame type \t\t\t: 161 / 16 / key frame\nSvt[info]: SVT [config]: BRC mode / target bitrate (kbps)\t\t\t\t: VBR / 2000 \nSvt[info]: SVT [config]: AQ mode / Variance Boost \t\t\t\t\t: 2 / 0\nSvt[info]: SVT [config]: sharpness / luminance-based QP bias \t\t\t\t: 0 / 0\nSvt[info]: SVT [config]: QP scale compress strength \t\t\t\t\t: 0\nSvt[info]: -------------------------------------------\nOutput #0, matroska, to 'C:\\Users\\Peter\\Desktop\\stuff\\MIUN\\quantitative_research\\video_compression\\compressed_videos\\BVI-HD\\av1\\2\\Rowing_1920x1080_30fps_av1.mkv':\n  Metadata:\n    major_brand     : isom\n    minor_version   : 512\n    compatible_brands: isomiso2avc1mp41\n    encoder         : Lavf62.3.100\n  Stream #0:0(und): Video: av1 (AV01 / 0x31305641), yuv420p(tv, progressive), 1920x1080, q=2-31, 2000 kb/s, 30 fps, 1k tbn (default)\n    Metadata:\n      encoder         : Lavc62.11.100 libsvtav1\n      handler_name    : VideoHandler\n      vendor_id       : [0][0][0][0]\n    Side data:\n      cpb: bitrate max/min/avg: 0/0/2000000 buffer size: 2000000 vbv_delay: N/A\nframe=    0 fps=0.0 q=0.0 size=       0KiB time=N/A bitrate=N/A speed=N/A elapsed=0:00:01.03    \nframe=    0 fps=0.0 q=0.0 size=       0KiB time=N/A bitrate=N/A speed=N/A elapsed=0:00:01.58    \nframe=    0 fps=0.0 q=0.0 size=       0KiB time=N/A bitrate=N/A speed=N/A elapsed=0:00:02.14    \nframe=    0 fps=0.0 q=0.0 size=       0KiB time=N/A bitrate=N/A speed=N/A elapsed=0:00:02.68    \nframe=    0 fps=0.0 q=0.0 size=       0KiB time=N/A bitrate=N/A speed=N/A elapsed=0:00:03.21    \nframe=    1 fps=0.3 q=51.0 size=       1KiB time=00:00:00.00 bitrate=N/A speed=   0x elapsed=0:00:03.73    \nframe=    1 fps=0.2 q=51.0 size=       1KiB time=00:00:00.00 bitrate=N/A speed=   0x elapsed=0:00:04.25    \nframe=    3 fps=0.6 q=58.0 size=       1KiB time=00:00:00.06 bitrate=  85.6kbits/s speed=0.014x elapsed=0:00:04.77    \nframe=    6 fps=1.1 q=57.0 size=       1KiB time=00:00:00.16 bitrate=  34.2kbits/s speed=0.0315x elapsed=0:00:05.28    \nframe=    9 fps=1.6 q=56.0 size=       1KiB time=00:00:00.23 bitrate=  24.4kbits/s speed=0.0402x elapsed=0:00:05.80    \nframe=   12 fps=1.9 q=56.0 size=       1KiB time=00:00:00.36 bitrate=  15.6kbits/s speed=0.0576x elapsed=0:00:06.36    \nframe=   16 fps=2.3 q=56.0 size=       1KiB time=00:00:00.50 bitrate=  11.4kbits/s speed=0.0728x elapsed=0:00:06.87    \nframe=   19 fps=2.6 q=55.0 size=       1KiB time=00:00:00.60 bitrate=   9.5kbits/s speed=0.0812x elapsed=0:00:07.39    \nframe=   22 fps=2.8 q=58.0 size=       1KiB time=00:00:00.70 bitrate=   8.1kbits/s speed=0.0886x elapsed=0:00:07.90    \nframe=   23 fps=2.7 q=55.0 size=       1KiB time=00:00:00.73 bitrate=   7.8kbits/s speed=0.087x elapsed=0:00:08.42    \nframe=   27 fps=3.0 q=56.0 size=       1KiB time=00:00:00.86 bitrate=   6.6kbits/s speed=0.097x elapsed=0:00:08.93    \nframe=   32 fps=3.4 q=58.0 size=       1KiB time=00:00:01.03 bitrate=   5.5kbits/s speed=0.109x elapsed=0:00:09.45    \nframe=   35 fps=3.5 q=57.0 size=       1KiB time=00:00:01.13 bitrate=   5.0kbits/s speed=0.113x elapsed=0:00:09.99    \nframe=   37 fps=3.5 q=55.0 size=       1KiB time=00:00:01.20 bitrate=   4.8kbits/s speed=0.114x elapsed=0:00:10.53    \nframe=   39 fps=3.5 q=57.0 size=       1KiB time=00:00:01.26 bitrate=   4.5kbits/s speed=0.114x elapsed=0:00:11.06    \nframe=   42 fps=3.6 q=58.0 size=       1KiB time=00:00:01.36 bitrate=   4.2kbits/s speed=0.118x elapsed=0:00:11.60    \nframe=   45 fps=3.7 q=55.0 size=       1KiB time=00:00:01.46 bitrate=   3.9kbits/s speed=0.121x elapsed=0:00:12.14    \nframe=   50 fps=3.9 q=59.0 size=       1KiB time=00:00:01.60 bitrate=   3.6kbits/s speed=0.126x elapsed=0:00:12.70    \nframe=   55 fps=4.1 q=58.0 size=       1KiB time=00:00:01.80 bitrate=   3.2kbits/s speed=0.136x elapsed=0:00:13.26    \nframe=   57 fps=4.1 q=55.0 size=       1KiB time=00:00:01.86 bitrate=   3.1kbits/s speed=0.135x elapsed=0:00:13.78    \nframe=   57 fps=4.0 q=55.0 size=       1KiB time=00:00:01.86 bitrate=   3.1kbits/s speed=0.13x elapsed=0:00:14.35    \nframe=   61 fps=4.1 q=56.0 size=       1KiB time=00:00:02.00 bitrate=   2.9kbits/s speed=0.134x elapsed=0:00:14.87    \nframe=   61 fps=4.0 q=56.0 size=       1KiB time=00:00:02.00 bitrate=   2.9kbits/s speed=0.13x elapsed=0:00:15.42    \nframe=   65 fps=4.1 q=51.0 size=       1KiB time=00:00:02.13 bitrate=   2.7kbits/s speed=0.133x elapsed=0:00:15.99    \nframe=   69 fps=4.2 q=55.0 size=       1KiB time=00:00:02.26 bitrate=   2.5kbits/s speed=0.137x elapsed=0:00:16.53    \nframe=   73 fps=4.3 q=56.0 size=       1KiB time=00:00:02.40 bitrate=   2.4kbits/s speed=0.141x elapsed=0:00:17.06    \nframe=   75 fps=4.2 q=57.0 size=       1KiB time=00:00:02.46 bitrate=   2.3kbits/s speed=0.14x elapsed=0:00:17.64    \nframe=   79 fps=4.3 q=57.0 size=       1KiB time=00:00:02.53 bitrate=   2.3kbits/s speed=0.139x elapsed=0:00:18.22    \nframe=   81 fps=4.3 q=52.0 size=       1KiB time=00:00:02.66 bitrate=   2.1kbits/s speed=0.142x elapsed=0:00:18.76    \nframe=   85 fps=4.4 q=55.0 size=       1KiB time=00:00:02.80 bitrate=   2.0kbits/s speed=0.145x elapsed=0:00:19.29    \nframe=   89 fps=4.5 q=55.0 size=       1KiB time=00:00:02.93 bitrate=   1.9kbits/s speed=0.148x elapsed=0:00:19.83    \nframe=   91 fps=4.5 q=57.0 size=       1KiB time=00:00:03.00 bitrate=   1.9kbits/s speed=0.147x elapsed=0:00:20.36    \nframe=   97 fps=4.6 q=51.0 size=       1KiB time=00:00:03.20 bitrate=   1.8kbits/s speed=0.153x elapsed=0:00:20.90    \nframe=  101 fps=4.7 q=55.0 size=       1KiB time=00:00:03.33 bitrate=   1.7kbits/s speed=0.156x elapsed=0:00:21.42    \nframe=  105 fps=4.8 q=55.0 size=       1KiB time=00:00:03.46 bitrate=   1.6kbits/s speed=0.158x elapsed=0:00:21.94    \nframe=  109 fps=4.9 q=55.0 size=       1KiB time=00:00:03.60 bitrate=   1.6kbits/s speed=0.16x elapsed=0:00:22.44    \nframe=  113 fps=4.9 q=51.0 size=       1KiB time=00:00:03.73 bitrate=   1.5kbits/s speed=0.162x elapsed=0:00:22.98    \nframe=  119 fps=5.1 q=56.0 size=       1KiB time=00:00:03.93 bitrate=   1.5kbits/s speed=0.167x elapsed=0:00:23.51    \nframe=  121 fps=5.0 q=55.0 size=       1KiB time=00:00:04.00 bitrate=   1.4kbits/s speed=0.166x elapsed=0:00:24.04    \nframe=  127 fps=5.2 q=58.0 size=       1KiB time=00:00:04.20 bitrate=   1.4kbits/s speed=0.171x elapsed=0:00:24.54    \nframe=  133 fps=5.3 q=58.0 size=       1KiB time=00:00:04.40 bitrate=   1.3kbits/s speed=0.176x elapsed=0:00:25.06    \nframe=  137 fps=5.4 q=56.0 size=       1KiB time=00:00:04.53 bitrate=   1.3kbits/s speed=0.177x elapsed=0:00:25.58    \nframe=  143 fps=5.5 q=58.0 size=       1KiB time=00:00:04.73 bitrate=   1.2kbits/s speed=0.181x elapsed=0:00:26.10    \n[out#0/matroska @ 000001cdb48ff040] video:1277KiB audio:0KiB subtitle:0KiB other streams:0KiB global headers:0KiB muxing overhead: 0.111632%\nframe=  150 fps=5.7 q=58.0 Lsize=    1279KiB time=00:00:04.96 bitrate=2109.0kbits/s speed=0.19x elapsed=0:00:26.17    \n",
  "seconds": 26.633388996124268,
  "probe_out": {}
}